<svg width="942" height="1087" viewBox="0 0 942 1087" fill="none" xmlns="http://www.w3.org/2000/svg">
<circle opacity="0.06" cx="40.329" cy="40.329" r="40.329" fill="#6085A6"/>
<circle opacity="0.07" cx="135.987" cy="40.329" r="40.329" fill="#6085A6"/>
<circle opacity="0.08" cx="231.645" cy="40.329" r="40.329" fill="#6085A6"/>
<circle opacity="0.08" cx="327.303" cy="40.329" r="40.329" fill="#6085A6"/>
<circle opacity="0.08" cx="422.961" cy="40.329" r="40.329" fill="#6085A6"/>
<circle opacity="0.08" cx="518.619" cy="40.329" r="40.329" fill="#6085A6"/>
<circle opacity="0.08" cx="614.278" cy="40.329" r="40.329" fill="#6085A6"/>
<circle opacity="0.08" cx="709.936" cy="40.329" r="40.329" fill="#6085A6"/>
<circle opacity="0.07" cx="805.594" cy="40.329" r="40.329" fill="#6085A6"/>
<circle opacity="0.06" cx="901.252" cy="40.329" r="40.329" fill="#6085A6"/>
<circle opacity="0.06" cx="40.329" cy="140.987" r="40.329" fill="#6085A6"/>
<circle opacity="0.07" cx="135.987" cy="140.987" r="40.329" fill="#6085A6"/>
<circle opacity="0.08" cx="231.645" cy="140.987" r="40.329" fill="#6085A6"/>
<circle opacity="0.08" cx="327.303" cy="140.987" r="40.329" fill="#6085A6"/>
<circle opacity="0.08" cx="422.961" cy="140.987" r="40.329" fill="#6085A6"/>
<circle opacity="0.08" cx="518.619" cy="140.987" r="40.329" fill="#6085A6"/>
<circle opacity="0.08" cx="614.278" cy="140.987" r="40.329" fill="#6085A6"/>
<circle opacity="0.08" cx="709.936" cy="140.987" r="40.329" fill="#6085A6"/>
<circle opacity="0.07" cx="805.594" cy="140.987" r="40.329" fill="#6085A6"/>
<circle opacity="0.06" cx="901.252" cy="140.987" r="40.329" fill="#6085A6"/>
<circle opacity="0.06" cx="40.329" cy="241.645" r="40.329" fill="#6085A6"/>
<circle opacity="0.07" cx="135.987" cy="241.645" r="40.329" fill="#6085A6"/>
<circle opacity="0.08" cx="231.645" cy="241.645" r="40.329" fill="#6085A6"/>
<circle opacity="0.08" cx="327.303" cy="241.645" r="40.329" fill="#6085A6"/>
<circle opacity="0.08" cx="422.961" cy="241.645" r="40.329" fill="#6085A6"/>
<circle opacity="0.08" cx="518.619" cy="241.645" r="40.329" fill="#6085A6"/>
<circle opacity="0.08" cx="614.278" cy="241.645" r="40.329" fill="#6085A6"/>
<circle opacity="0.08" cx="709.936" cy="241.645" r="40.329" fill="#6085A6"/>
<circle opacity="0.07" cx="805.594" cy="241.645" r="40.329" fill="#6085A6"/>
<circle opacity="0.06" cx="901.252" cy="241.645" r="40.329" fill="#6085A6"/>
<circle opacity="0.06" cx="40.329" cy="342.303" r="40.329" fill="#6085A6"/>
<circle opacity="0.07" cx="135.987" cy="342.303" r="40.329" fill="#6085A6"/>
<circle opacity="0.08" cx="231.645" cy="342.303" r="40.329" fill="#6085A6"/>
<circle opacity="0.08" cx="327.303" cy="342.303" r="40.329" fill="#6085A6"/>
<circle opacity="0.08" cx="422.961" cy="342.303" r="40.329" fill="#6085A6"/>
<circle opacity="0.08" cx="518.619" cy="342.303" r="40.329" fill="#6085A6"/>
<circle opacity="0.08" cx="614.278" cy="342.303" r="40.329" fill="#6085A6"/>
<circle opacity="0.08" cx="709.936" cy="342.303" r="40.329" fill="#6085A6"/>
<circle opacity="0.07" cx="805.594" cy="342.303" r="40.329" fill="#6085A6"/>
<circle opacity="0.06" cx="901.252" cy="342.303" r="40.329" fill="#6085A6"/>
<circle opacity="0.06" cx="40.329" cy="442.961" r="40.329" fill="#6085A6"/>
<circle opacity="0.07" cx="135.987" cy="442.961" r="40.329" fill="#6085A6"/>
<circle opacity="0.08" cx="231.645" cy="442.961" r="40.329" fill="#6085A6"/>
<circle opacity="0.08" cx="327.303" cy="442.961" r="40.329" fill="#6085A6"/>
<circle opacity="0.08" cx="422.961" cy="442.961" r="40.329" fill="#6085A6"/>
<circle opacity="0.08" cx="518.619" cy="442.961" r="40.329" fill="#6085A6"/>
<circle opacity="0.08" cx="614.278" cy="442.961" r="40.329" fill="#6085A6"/>
<circle opacity="0.08" cx="709.936" cy="442.961" r="40.329" fill="#6085A6"/>
<circle opacity="0.07" cx="805.594" cy="442.961" r="40.329" fill="#6085A6"/>
<circle opacity="0.06" cx="901.252" cy="442.961" r="40.329" fill="#6085A6"/>
<circle opacity="0.06" cx="40.329" cy="543.619" r="40.329" fill="#6085A6"/>
<circle opacity="0.07" cx="135.987" cy="543.619" r="40.329" fill="#6085A6"/>
<circle opacity="0.08" cx="231.645" cy="543.619" r="40.329" fill="#6085A6"/>
<circle opacity="0.08" cx="327.303" cy="543.619" r="40.329" fill="#6085A6"/>
<circle opacity="0.08" cx="422.961" cy="543.619" r="40.329" fill="#6085A6"/>
<circle opacity="0.08" cx="518.619" cy="543.619" r="40.329" fill="#6085A6"/>
<circle opacity="0.08" cx="614.278" cy="543.619" r="40.329" fill="#6085A6"/>
<circle opacity="0.08" cx="709.936" cy="543.619" r="40.329" fill="#6085A6"/>
<circle opacity="0.07" cx="805.594" cy="543.619" r="40.329" fill="#6085A6"/>
<circle opacity="0.06" cx="901.252" cy="543.619" r="40.329" fill="#6085A6"/>
<circle opacity="0.06" cx="40.329" cy="644.277" r="40.329" fill="#6085A6"/>
<circle opacity="0.07" cx="135.987" cy="644.277" r="40.329" fill="#6085A6"/>
<circle opacity="0.08" cx="231.645" cy="644.277" r="40.329" fill="#6085A6"/>
<circle opacity="0.08" cx="327.303" cy="644.277" r="40.329" fill="#6085A6"/>
<circle opacity="0.08" cx="422.961" cy="644.277" r="40.329" fill="#6085A6"/>
<circle opacity="0.08" cx="518.619" cy="644.277" r="40.329" fill="#6085A6"/>
<circle opacity="0.08" cx="614.278" cy="644.277" r="40.329" fill="#6085A6"/>
<circle opacity="0.08" cx="709.936" cy="644.277" r="40.329" fill="#6085A6"/>
<circle opacity="0.07" cx="805.594" cy="644.277" r="40.329" fill="#6085A6"/>
<circle opacity="0.06" cx="901.252" cy="644.277" r="40.329" fill="#6085A6"/>
<circle opacity="0.06" cx="40.329" cy="744.936" r="40.329" fill="#6085A6"/>
<circle opacity="0.06" cx="40.329" cy="845.329" r="40.329" fill="#6085A6"/>
<circle opacity="0.06" cx="40.329" cy="945.723" r="40.329" fill="#6085A6"/>
<circle opacity="0.06" cx="40.329" cy="1046.12" r="40.329" fill="#6085A6"/>
<circle opacity="0.07" cx="135.987" cy="744.936" r="40.329" fill="#6085A6"/>
<circle opacity="0.07" cx="135.987" cy="845.329" r="40.329" fill="#6085A6"/>
<circle opacity="0.07" cx="135.987" cy="945.723" r="40.329" fill="#6085A6"/>
<circle opacity="0.07" cx="135.987" cy="1046.12" r="40.329" fill="#6085A6"/>
<circle opacity="0.08" cx="231.645" cy="744.936" r="40.329" fill="#6085A6"/>
<circle opacity="0.08" cx="231.645" cy="845.329" r="40.329" fill="#6085A6"/>
<circle opacity="0.08" cx="231.645" cy="945.723" r="40.329" fill="#6085A6"/>
<circle opacity="0.08" cx="231.645" cy="1046.12" r="40.329" fill="#6085A6"/>
<circle opacity="0.08" cx="327.303" cy="744.936" r="40.329" fill="#6085A6"/>
<circle opacity="0.08" cx="327.303" cy="845.329" r="40.329" fill="#6085A6"/>
<circle opacity="0.08" cx="327.303" cy="945.723" r="40.329" fill="#6085A6"/>
<circle opacity="0.08" cx="327.303" cy="1046.12" r="40.329" fill="#6085A6"/>
<circle opacity="0.08" cx="422.961" cy="744.936" r="40.329" fill="#6085A6"/>
<circle opacity="0.08" cx="422.961" cy="845.329" r="40.329" fill="#6085A6"/>
<circle opacity="0.08" cx="422.961" cy="945.723" r="40.329" fill="#6085A6"/>
<circle opacity="0.08" cx="422.961" cy="1046.12" r="40.329" fill="#6085A6"/>
<circle opacity="0.08" cx="518.619" cy="744.936" r="40.329" fill="#6085A6"/>
<circle opacity="0.08" cx="518.619" cy="845.329" r="40.329" fill="#6085A6"/>
<circle opacity="0.08" cx="518.619" cy="945.723" r="40.329" fill="#6085A6"/>
<circle opacity="0.08" cx="518.619" cy="1046.12" r="40.329" fill="#6085A6"/>
<circle opacity="0.08" cx="614.278" cy="744.936" r="40.329" fill="#6085A6"/>
<circle opacity="0.08" cx="614.278" cy="845.329" r="40.329" fill="#6085A6"/>
<circle opacity="0.08" cx="614.278" cy="945.723" r="40.329" fill="#6085A6"/>
<circle opacity="0.08" cx="614.278" cy="1046.12" r="40.329" fill="#6085A6"/>
<circle opacity="0.08" cx="709.936" cy="744.936" r="40.329" fill="#6085A6"/>
<circle opacity="0.08" cx="709.936" cy="845.329" r="40.329" fill="#6085A6"/>
<circle opacity="0.08" cx="709.936" cy="945.723" r="40.329" fill="#6085A6"/>
<circle opacity="0.08" cx="709.936" cy="1046.12" r="40.329" fill="#6085A6"/>
<circle opacity="0.07" cx="805.594" cy="744.936" r="40.329" fill="#6085A6"/>
<circle opacity="0.07" cx="805.594" cy="845.329" r="40.329" fill="#6085A6"/>
<circle opacity="0.07" cx="805.594" cy="945.723" r="40.329" fill="#6085A6"/>
<circle opacity="0.07" cx="805.594" cy="1046.12" r="40.329" fill="#6085A6"/>
<circle opacity="0.06" cx="901.252" cy="744.936" r="40.329" fill="#6085A6"/>
<circle opacity="0.06" cx="901.252" cy="845.329" r="40.329" fill="#6085A6"/>
<circle opacity="0.06" cx="901.252" cy="945.723" r="40.329" fill="#6085A6"/>
<circle opacity="0.06" cx="901.252" cy="1046.12" r="40.329" fill="#6085A6"/>
</svg>
