<svg width="62" height="65" viewBox="0 0 62 65" fill="none" xmlns="http://www.w3.org/2000/svg">
<path d="M24.6175 29.4749C25.2098 29.0179 25.4958 28.2634 25.4958 27.226C25.5162 26.7327 25.4209 26.2467 25.2167 25.8041C25.0328 25.4487 24.7605 25.1512 24.4269 24.9408C24.081 24.7173 23.6968 24.5694 23.2967 24.5056C22.861 24.4185 22.4185 24.375 21.9828 24.3823H17.1966V30.1641H22.3776C23.2695 30.1713 24.0252 29.9392 24.6175 29.4749V29.4749ZM25.4209 34.6981C24.7537 34.154 23.8618 33.8856 22.7521 33.8856H17.183V40.7048H22.6432C23.1538 40.7048 23.6235 40.654 24.0797 40.5525C24.5113 40.4625 24.9227 40.2852 25.2915 40.0301C25.6388 39.7907 25.9179 39.4643 26.129 39.0435C26.3332 38.6228 26.4353 38.0859 26.4353 37.4403C26.4353 36.1562 26.0949 35.2494 25.4209 34.6981V34.6981ZM30.8606 0C14.0172 0 0.359985 14.5525 0.359985 32.5C0.359985 50.4475 14.0172 65 30.8606 65C47.7041 65 61.3613 50.4475 61.3613 32.5C61.3613 14.5525 47.7041 0 30.8606 0ZM36.7497 20.8131H46.1722V23.2578H36.7497V20.8131ZM30.8606 40.9732C30.4199 41.8646 29.7906 42.6346 29.0224 43.2221C28.2191 43.817 27.3272 44.2522 26.3809 44.5061C25.3908 44.7888 24.3694 44.9279 23.3444 44.9196H12.0701V20.1747H23.0312C24.141 20.1747 25.1486 20.2835 26.0677 20.4866C26.98 20.6897 27.7561 21.0379 28.4097 21.5095C29.0565 21.981 29.5671 22.6122 29.9279 23.3956C30.2819 24.1719 30.4658 25.144 30.4658 26.2974C30.4658 27.5452 30.2002 28.5753 29.6692 29.4096C29.1314 30.2439 28.3552 30.9185 27.3 31.4481C28.7365 31.8834 29.7918 32.6596 30.4862 33.7478C31.1942 34.8504 31.5415 36.1708 31.5415 37.7232C31.5415 38.9855 31.3168 40.0664 30.8606 40.9732ZM49.8419 37.1429H37.6961C37.6961 38.5502 38.1522 39.8996 38.8398 40.625C39.5343 41.3432 40.5283 41.7059 41.8286 41.7059C42.7681 41.7059 43.5647 41.452 44.2455 40.9515C44.9195 40.4509 45.328 39.9213 45.4778 39.37H49.5491C48.8955 41.5246 47.9015 43.0625 46.5535 43.9911C45.2191 44.9196 43.5851 45.3839 41.6856 45.3839C40.3581 45.3839 39.1666 45.1518 38.0977 44.7093C37.0697 44.2812 36.1438 43.6283 35.3813 42.7868C34.6294 41.9226 34.0483 40.9062 33.6724 39.798C33.2571 38.572 33.0529 37.2807 33.0665 35.9821C33.0665 34.6401 33.2775 33.3923 33.686 32.2316C34.469 29.9754 36.0961 28.1691 38.1726 27.2333C39.2824 26.74 40.4738 26.4933 41.6788 26.5078C43.1086 26.5078 44.3476 26.798 45.4233 27.3929C46.4589 27.9609 47.3581 28.775 48.0513 29.7723C48.7389 30.7662 49.2223 31.8979 49.5287 33.1747C49.8214 34.4297 49.9235 35.75 49.8419 37.1429V37.1429ZM41.5359 30.2076C40.8006 30.2076 40.181 30.3454 39.7045 30.6138C39.2279 30.8823 38.833 31.216 38.5335 31.6004C38.2482 31.9717 38.0373 32.4013 37.9139 32.8627C37.805 33.2472 37.7301 33.639 37.7029 34.0379H45.2259C45.117 32.7829 44.7085 31.8544 44.1638 31.2015C43.5919 30.5558 42.6728 30.2076 41.5359 30.2076V30.2076Z" fill="#F0F1F2"/>
</svg>
