<svg width="66" height="69" viewBox="0 0 66 69" fill="none" xmlns="http://www.w3.org/2000/svg">
<path d="M63.5746 34.5C63.5797 38.7808 62.7887 43.0202 61.2472 46.9732C59.7057 50.9263 57.4443 54.5147 54.5937 57.5311C51.7664 60.5384 48.4106 62.9226 44.7181 64.5473C41.0256 66.1721 37.0689 67.0055 33.074 67C16.2285 67 2.57333 52.4497 2.57333 34.5C2.56267 26.1666 5.56677 18.1495 10.961 12.1156C13.8072 8.91537 17.2364 6.36761 21.0386 4.62827C24.8408 2.88894 28.9362 1.99461 33.074 2.00003C37.0689 1.99451 41.0256 2.82794 44.7181 4.45266C48.4106 6.07738 51.7664 8.46155 54.5937 11.4689C57.4443 14.4853 59.7057 18.0737 61.2472 22.0268C62.7887 25.9798 63.5797 30.2192 63.5746 34.5V34.5Z" stroke="#F0F1F2" stroke-width="4" stroke-linecap="round" stroke-linejoin="round"/>
<path d="M63.5746 34.5001C59.1246 34.5001 46.8481 32.7126 35.8602 37.8524C23.9238 43.4376 15.2815 52.1004 11.5146 57.4889" stroke="#F0F1F2" stroke-width="4" stroke-linecap="round" stroke-linejoin="round"/>
<path d="M21.6362 4.36279C26.4096 9.05741 36.8255 21.0109 40.6991 32.875C44.5727 44.7408 46.0062 59.33 46.8907 63.4819" stroke="#F0F1F2" stroke-width="4" stroke-linecap="round" stroke-linejoin="round"/>
<path d="M2.81067 30.4375C8.57224 30.808 23.8241 31.1412 33.5843 26.7C43.3445 22.2589 51.7428 14.09 54.6236 11.4982" stroke="#F0F1F2" stroke-width="4" stroke-linecap="round" stroke-linejoin="round"/>
<path d="M4.86084 46.8712C7.54842 53.8032 12.3956 59.5368 18.5861 63.1065" stroke="#F0F1F2" stroke-width="4" stroke-linecap="round" stroke-linejoin="round"/>
<path d="M2.57333 34.5C2.56267 26.1666 5.56676 18.1495 10.961 12.1157" stroke="#F0F1F2" stroke-width="4" stroke-linecap="round" stroke-linejoin="round"/>
<path d="M33.0739 2.00002C28.9361 1.99461 24.8408 2.88893 21.0386 4.62827C17.2364 6.3676 13.8072 8.91537 10.961 12.1156" stroke="#F0F1F2" stroke-width="4" stroke-linecap="round" stroke-linejoin="round"/>
<path d="M45.2742 4.70404C48.7477 6.32341 51.908 8.61742 54.5937 11.4689C57.4443 14.4853 59.7058 18.0737 61.2473 22.0268C62.7887 25.9799 63.5798 30.2193 63.5746 34.5C63.5746 38.5024 62.896 42.3341 61.6531 45.875" stroke="#F0F1F2" stroke-width="4" stroke-linecap="round" stroke-linejoin="round"/>
<path d="M33.074 66.9999C37.0689 67.0054 41.0256 66.172 44.7181 64.5473C48.4106 62.9226 51.7664 60.5384 54.5937 57.5311" stroke="#F0F1F2" stroke-width="4" stroke-linecap="round" stroke-linejoin="round"/>
</svg>
