<svg width="62" height="65" viewBox="0 0 62 65" fill="none" xmlns="http://www.w3.org/2000/svg">
<path d="M30.6472 58.5C37.1187 58.5 43.325 55.7607 47.901 50.8848C52.477 46.0088 55.0478 39.3956 55.0478 32.5C55.0478 25.6044 52.477 18.9912 47.901 14.1152C43.325 9.23928 37.1187 6.5 30.6472 6.5C24.1758 6.5 17.9695 9.23928 13.3935 14.1152C8.8175 18.9912 6.24673 25.6044 6.24673 32.5C6.24673 39.3956 8.8175 46.0088 13.3935 50.8848C17.9695 55.7607 24.1758 58.5 30.6472 58.5V58.5ZM30.6472 65C13.8017 65 0.146606 50.4497 0.146606 32.5C0.146606 14.5503 13.8017 0 30.6472 0C47.4928 0 61.1479 14.5503 61.1479 32.5C61.1479 50.4497 47.4928 65 30.6472 65Z" fill="#F0F1F2"/>
<path d="M41.0998 42.731V26.481H25.8495V25.467C25.8495 23.7868 27.1305 22.4185 28.7105 22.4185H31.5684V16.3248H28.7105C26.4357 16.3273 24.2548 17.2914 22.6463 19.0053C21.0378 20.7193 20.1331 23.0431 20.1306 25.467V26.481H16.3181V32.5748H20.1306V42.731H16.3181V48.8248H29.6621V42.731H25.8495V32.5748H35.4358V42.731H31.5684V48.8248H44.9124V42.731H41.0998Z" fill="#F0F1F2"/>
<path d="M37.9735 22.6589C39.6597 22.6589 41.0266 21.2024 41.0266 19.4057C41.0266 17.6089 39.6597 16.1524 37.9735 16.1524C36.2873 16.1524 34.9204 17.6089 34.9204 19.4057C34.9204 21.2024 36.2873 22.6589 37.9735 22.6589Z" fill="#F0F1F2"/>
</svg>
