<svg width="62" height="65" viewBox="0 0 62 65" fill="none" xmlns="http://www.w3.org/2000/svg">
<path fill-rule="evenodd" clip-rule="evenodd" d="M31.2873 0C14.4357 0 0.786621 14.9116 0.786621 33.322C0.786621 48.0671 9.51744 60.5212 21.6415 64.9363C23.1665 65.2279 23.7384 64.2282 23.7384 63.3535C23.7384 62.5621 23.7002 59.938 23.7002 57.1473C16.037 58.6885 14.0544 55.1063 13.4444 53.232C13.1013 52.274 11.6144 49.3166 10.3181 48.5252C9.25056 47.9004 7.72552 46.3593 10.28 46.3176C12.6819 46.276 14.3975 48.7335 14.9694 49.7332C17.7145 54.7731 22.099 53.3569 23.8527 52.4822C24.1196 50.3163 24.9203 48.8585 25.7972 48.0254C19.0108 47.1924 11.9194 44.3183 11.9194 31.5726C11.9194 27.9489 13.1013 24.9499 15.0457 22.6173C14.7407 21.7843 13.6732 18.3688 15.3507 13.787C15.3507 13.787 17.9051 12.9123 23.7384 17.2025C26.1784 16.4528 28.771 16.0779 31.3635 16.0779C33.9561 16.0779 36.5486 16.4528 38.9887 17.2025C44.822 12.8706 47.3764 13.787 47.3764 13.787C49.0539 18.3688 47.9864 21.7843 47.6814 22.6173C49.6258 24.9499 50.8077 27.9072 50.8077 31.5726C50.8077 44.36 43.6782 47.1924 36.8918 48.0254C37.9974 49.0667 38.9506 51.066 38.9506 54.19C38.9506 58.6468 38.9125 62.2289 38.9125 63.3535C38.9125 64.2282 39.4843 65.2696 41.0094 64.9363C47.0642 62.703 52.3256 58.4515 56.053 52.7804C59.7804 47.1092 61.7861 40.3038 61.788 33.322C61.788 14.9116 48.1389 0 31.2873 0Z" fill="#F0F1F2"/>
</svg>
