<svg width="62" height="65" viewBox="0 0 62 65" fill="none" xmlns="http://www.w3.org/2000/svg">
<path fill-rule="evenodd" clip-rule="evenodd" d="M17.9261 0.195C21.1785 0.0354545 22.2156 0 30.5007 0C38.7857 0 39.8228 0.038409 43.0725 0.195C46.3222 0.351591 48.5404 0.904091 50.4814 1.70477C52.5138 2.52318 54.3577 3.8025 55.8827 5.45705C57.4355 7.07909 58.6334 9.04091 59.3986 11.2095C60.1528 13.2777 60.6686 15.6414 60.8183 19.0982C60.968 22.5698 61.0013 23.6748 61.0013 32.5C61.0013 41.3282 60.9653 42.4332 60.8183 45.8989C60.6713 49.3557 60.1528 51.7193 59.3986 53.7875C58.6333 55.9564 57.4335 57.9215 55.8827 59.5459C54.3577 61.2005 52.5138 62.4768 50.4814 63.2923C48.5404 64.0959 46.3222 64.6455 43.078 64.805C39.8228 64.9645 38.7857 65 30.5007 65C22.2156 65 21.1785 64.9616 17.9261 64.805C14.6819 64.6484 12.4637 64.0959 10.5227 63.2923C8.48728 62.4767 6.6431 61.1983 5.11856 59.5459C3.56686 57.9229 2.36606 55.9588 1.5999 53.7905C0.848473 51.7223 0.332734 49.3586 0.183004 45.9018C0.0332734 42.4302 0 41.3252 0 32.5C0 23.6718 0.0360462 22.5668 0.183004 19.1041C0.329962 15.6414 0.848473 13.2777 1.5999 11.2095C2.36719 9.04115 3.56891 7.07706 5.12134 5.45409C6.64371 3.80103 8.48604 2.52154 10.52 1.70477C12.4609 0.904091 14.6791 0.354545 17.9233 0.195H17.9261ZM42.8257 6.045C39.6093 5.88841 38.6443 5.85591 30.5007 5.85591C22.357 5.85591 21.3921 5.88841 18.1756 6.045C15.2004 6.18977 13.5867 6.71864 12.5108 7.16477C11.0884 7.75568 10.0708 8.45591 9.00324 9.59341C7.9913 10.6424 7.21252 11.9195 6.72401 13.3309C6.30532 14.4773 5.80899 16.1968 5.67312 19.367C5.52616 22.7943 5.49566 23.8225 5.49566 32.5C5.49566 41.1775 5.52616 42.2057 5.67312 45.633C5.80899 48.8032 6.30532 50.5227 6.72401 51.6691C7.21202 53.0784 7.99117 54.3577 9.00324 55.4066C9.98758 56.485 11.1882 57.3152 12.5108 57.8352C13.5867 58.2814 15.2004 58.8102 18.1756 58.955C21.3921 59.1116 22.3542 59.1441 30.5007 59.1441C38.6471 59.1441 39.6093 59.1116 42.8257 58.955C45.8009 58.8102 47.4147 58.2814 48.4905 57.8352C49.9129 57.2443 50.9305 56.5441 51.9981 55.4066C53.0101 54.3577 53.7893 53.0784 54.2773 51.6691C54.696 50.5227 55.1923 48.8032 55.3282 45.633C55.4751 42.2057 55.5056 41.1775 55.5056 32.5C55.5056 23.8225 55.4751 22.7943 55.3282 19.367C55.1923 16.1968 54.696 14.4773 54.2773 13.3309C53.7227 11.8152 53.0656 10.7309 51.9981 9.59341C51.0135 8.51521 49.8151 7.6854 48.4905 7.16477C47.4147 6.71864 45.8009 6.18977 42.8257 6.045V6.045ZM26.6049 42.5189C28.7806 43.4839 31.2032 43.6142 33.459 42.8874C35.7148 42.1606 37.6639 40.6218 38.9732 38.5339C40.2826 36.446 40.871 33.9385 40.6381 31.4396C40.4052 28.9408 39.3653 26.6056 37.696 24.833C36.6319 23.6998 35.3453 22.8322 33.9287 22.2925C32.5122 21.7528 31.0009 21.5545 29.5038 21.7118C28.0067 21.8692 26.5609 22.3783 25.2706 23.2024C23.9803 24.0266 22.8776 25.1454 22.0417 26.4782C21.2059 27.811 20.6578 29.3247 20.4369 30.9103C20.216 32.496 20.3277 34.114 20.7641 35.6481C21.2005 37.1822 21.9507 38.5941 22.9607 39.7821C23.9706 40.9702 25.2152 41.9049 26.6049 42.5189ZM19.4151 20.6877C20.8708 19.1365 22.5991 17.906 24.5012 17.0665C26.4032 16.227 28.4419 15.7949 30.5007 15.7949C32.5594 15.7949 34.5981 16.227 36.5001 17.0665C38.4022 17.906 40.1305 19.1365 41.5863 20.6877C43.042 22.2389 44.1968 24.0805 44.9847 26.1072C45.7726 28.134 46.1781 30.3063 46.1781 32.5C46.1781 34.6937 45.7726 36.866 44.9847 38.8928C44.1968 40.9195 43.042 42.7611 41.5863 44.3123C38.6462 47.4451 34.6586 49.2051 30.5007 49.2051C26.3427 49.2051 22.3551 47.4451 19.4151 44.3123C16.475 41.1795 14.8232 36.9305 14.8232 32.5C14.8232 28.0695 16.475 23.8205 19.4151 20.6877V20.6877ZM49.6551 18.2827C50.0158 17.9201 50.3046 17.4841 50.5044 17.0004C50.7041 16.5167 50.8108 15.9952 50.818 15.4668C50.8253 14.9385 50.7329 14.4139 50.5465 13.9242C50.36 13.4345 50.0833 12.9897 49.7326 12.616C49.3819 12.2424 48.9644 11.9475 48.5049 11.7488C48.0453 11.5501 47.553 11.4517 47.0572 11.4594C46.5613 11.4672 46.0719 11.5808 45.618 11.7936C45.164 12.0065 44.7548 12.3142 44.4145 12.6986C43.7527 13.4462 43.3903 14.4392 43.4044 15.4668C43.4184 16.4945 43.8078 17.4758 44.4898 18.2025C45.1718 18.9292 46.0928 19.3441 47.0572 19.3591C48.0216 19.374 48.9535 18.9879 49.6551 18.2827V18.2827Z" fill="#F0F1F2"/>
</svg>
